# xmcd
#
# Track frame offsets: 
#        150
#        19650
#        33900
#        51800
#        65025
#        80700
#        104525
#        120567
#        142317
#        164460
#        177627
#        197715
#        214887
#
# Disc length: 3229 seconds
#
# Revision: 0
# Processed by: cddbd v1.5.2PL0 Copyright (c) Steve Scherf et al.
# Submitted via: ExactAudioCopy v1.0b1
#
DISCID=c70c9b0d
DTITLE=Various Artist - J-BLUES Compilation at the BEING STUDIO
DYEAR=2003
DGENRE=Blues
TTITLE0=近藤房之助&One Arm featuring Ned Rothenberg - DON'T LET ME BE LONEL
TTITLE0=Y TONIGHT
TTITLE1=桑名晴子 - HURT
TTITLE2=ウィーピング・ハープ妹尾 - I'm still in love with you
TTITLE3=塩次伸二 - Evening Baby
TTITLE4=Quncho - A Change Is Gonna Come
TTITLE5=永井 ホトケ 隆 - Come On In My Kitchen
TTITLE6=稲葉浩志 - TRAMP
TTITLE7=坂井泉水 - Black Velvet
TTITLE8=川島だりあ&倉田冬樹 - RED HOUSE
TTITLE9=STORMY - DON'T PUT YOUR HANDS ON ME
TTITLE10=立原燎 - I FEEL THE EARTH MOVE
TTITLE11=桜井ゆみ - MOVE OVER
TTITLE12=The West Road Blues Band - Take Me To The River
EXTD=
EXTT0=
EXTT1=
EXTT2=
EXTT3=
EXTT4=
EXTT5=
EXTT6=
EXTT7=
EXTT8=
EXTT9=
EXTT10=
EXTT11=
EXTT12=
PLAYORDER=
